<svg width="10" height="8" viewBox="0 0 10 8" fill="none" xmlns="http://www.w3.org/2000/svg">
<path d="M9.64283 0H0.357164C0.295295 -3.8147e-06 0.234485 0.0138402 0.180694 0.040175C0.126903 0.0665097 0.0819748 0.104432 0.0503121 0.150226C0.0186495 0.19602 0.00133822 0.248114 7.4521e-05 0.301406C-0.00118917 0.354698 0.013638 0.407359 0.0431034 0.454228L4.68594 7.83881C4.71658 7.88756 4.76193 7.92828 4.81722 7.95665C4.8725 7.98502 4.93565 8 5 8C5.06435 8 5.1275 7.98502 5.18278 7.95665C5.23806 7.92828 5.28342 7.88756 5.31406 7.83881L9.9569 0.454228C9.98636 0.407359 10.0012 0.354698 9.99992 0.301406C9.99866 0.248114 9.98135 0.19602 9.94969 0.150226C9.91802 0.104432 9.8731 0.0665097 9.81931 0.040175C9.76551 0.0138402 9.7047 -3.8147e-06 9.64283 0Z" fill="black"/>
</svg>
