<svg width="101" height="45" viewBox="0 0 101 45" fill="none" xmlns="http://www.w3.org/2000/svg">
<g clip-path="url(#clip0_100_23)">
<path d="M26 0H24V26H26V0Z" fill="black"/>
<path d="M20 5.10629C20 6.26956 19.0267 7.21258 17.8261 7.21258C16.6255 7.21258 15.6522 6.26956 15.6522 5.10629C15.6522 3.94302 16.6255 3 17.8261 3C19.0267 3 20 3.94302 20 5.10629Z" fill="#E72E20"/>
<path fill-rule="evenodd" clip-rule="evenodd" d="M17.3913 21.8102V28.7323C17.3913 32.9201 13.8874 36.315 9.56522 36.315C5.24299 36.315 1.73913 32.9201 1.73913 28.7323H0C0 33.8507 4.28249 38 9.56522 38C14.8479 38 19.1304 33.8507 19.1304 28.7323V16.4803C19.1304 11.3619 14.8479 7.21259 9.56522 7.21259C4.28249 7.21259 0 11.3619 0 16.4803C0 21.5987 4.28249 25.748 9.56522 25.748C12.8003 25.748 15.6602 24.1919 17.3913 21.8102ZM17.3913 16.4803C17.3913 20.6681 13.8874 24.0629 9.56522 24.0629C5.24299 24.0629 1.73913 20.6681 1.73913 16.4803C1.73913 12.2925 5.24299 8.89763 9.56522 8.89763C13.8874 8.89763 17.3913 12.2925 17.3913 16.4803Z" fill="#E72E20"/>
<path fill-rule="evenodd" clip-rule="evenodd" d="M53 0H55V10.6683C56.7383 8.43594 59.4515 7 62.5 7C67.7467 7 72 11.2533 72 16.5C72 21.7467 67.7467 26 62.5 26C59.4515 26 56.7383 24.5641 55 22.3317V26H53V0ZM62.5 24C58.3579 24 55 20.6421 55 16.5C55 12.3579 58.3579 9 62.5 9C66.6421 9 70 12.3579 70 16.5C70 20.6421 66.6421 24 62.5 24Z" fill="black"/>
<path d="M101 0H99V26H101V0Z" fill="black"/>
<path fill-rule="evenodd" clip-rule="evenodd" d="M92 7H94V26H92V22.3317C90.2617 24.5641 87.5485 26 84.5 26C79.2533 26 75 21.7467 75 16.5C75 11.2533 79.2533 7 84.5 7C87.5485 7 90.2617 8.43594 92 10.6683V7ZM92 16.5C92 12.3579 88.6421 9 84.5 9C80.3579 9 77 12.3579 77 16.5C77 20.6421 80.3579 24 84.5 24C88.6421 24 92 20.6421 92 16.5Z" fill="black"/>
<path fill-rule="evenodd" clip-rule="evenodd" d="M49 16.5C49 21.7467 44.7467 26 39.5 26C34.2533 26 30 21.7467 30 16.5C30 11.2533 34.2533 7 39.5 7C44.7467 7 49 11.2533 49 16.5ZM47 16.5C47 20.6421 43.6421 24 39.5 24C35.3579 24 32 20.6421 32 16.5C32 12.3579 35.3579 9 39.5 9C43.6421 9 47 12.3579 47 16.5Z" fill="black"/>
<path d="M86.5 32H35.5C31.9101 32 29 34.9101 29 38.5C29 42.0899 31.9101 45 35.5 45H86.5C90.0899 45 93 42.0899 93 38.5C93 34.9101 90.0899 32 86.5 32Z" fill="#E72E20"/>
<path d="M43.8723 41V36.065H44.6003V40.377H47.0433V41H43.8723ZM49.6169 41.063C49.1455 41.063 48.7372 40.9603 48.3919 40.755C48.0465 40.545 47.7782 40.251 47.5869 39.873C47.4002 39.4903 47.3069 39.0423 47.3069 38.529C47.3069 38.011 47.4002 37.563 47.5869 37.185C47.7782 36.807 48.0465 36.5153 48.3919 36.31C48.7372 36.1047 49.1455 36.002 49.6169 36.002C50.0835 36.002 50.4895 36.1047 50.8349 36.31C51.1849 36.5153 51.4532 36.807 51.6399 37.185C51.8312 37.563 51.9269 38.0087 51.9269 38.522C51.9269 39.04 51.8312 39.4903 51.6399 39.873C51.4532 40.251 51.1849 40.545 50.8349 40.755C50.4895 40.9603 50.0835 41.063 49.6169 41.063ZM49.6169 40.433C50.1069 40.433 50.4872 40.2673 50.7579 39.936C51.0332 39.6 51.1709 39.131 51.1709 38.529C51.1709 37.927 51.0355 37.4603 50.7649 37.129C50.4942 36.7977 50.1115 36.632 49.6169 36.632C49.1269 36.632 48.7442 36.7977 48.4689 37.129C48.1982 37.4603 48.0629 37.927 48.0629 38.529C48.0629 39.131 48.1982 39.6 48.4689 39.936C48.7442 40.2673 49.1269 40.433 49.6169 40.433ZM55.2126 41.063C54.6759 41.063 54.2233 40.9627 53.8546 40.762C53.4859 40.5567 53.2059 40.265 53.0146 39.887C52.8279 39.509 52.7346 39.0587 52.7346 38.536C52.7346 38.018 52.8303 37.57 53.0216 37.192C53.2129 36.8093 53.4906 36.5153 53.8546 36.31C54.2186 36.1047 54.6549 36.002 55.1636 36.002C55.5136 36.002 55.8379 36.0533 56.1366 36.156C56.4353 36.2587 56.6849 36.4057 56.8856 36.597L56.6266 37.164C56.4026 36.9773 56.1739 36.8443 55.9406 36.765C55.7073 36.681 55.4483 36.639 55.1636 36.639C54.6176 36.639 54.2023 36.8047 53.9176 37.136C53.6329 37.4627 53.4906 37.9293 53.4906 38.536C53.4906 39.1567 53.6353 39.628 53.9246 39.95C54.2186 40.272 54.6573 40.433 55.2406 40.433C55.5953 40.433 55.9476 40.3747 56.2976 40.258V38.935H55.0936V38.389H56.9066V40.713C56.6966 40.8157 56.4353 40.8997 56.1226 40.965C55.8146 41.0303 55.5113 41.063 55.2126 41.063ZM58.0227 41V36.065H58.7507V41H58.0227ZM61.5339 41.063C61.1466 41.063 60.7919 41.014 60.4699 40.916C60.1479 40.8133 59.8749 40.671 59.6509 40.489L59.8819 39.915C60.1153 40.0923 60.3649 40.2253 60.6309 40.314C60.8969 40.4027 61.1979 40.447 61.5339 40.447C61.9306 40.447 62.2223 40.377 62.4089 40.237C62.6003 40.0923 62.6959 39.9057 62.6959 39.677C62.6959 39.4903 62.6283 39.3433 62.4929 39.236C62.3576 39.124 62.1313 39.0353 61.8139 38.97L61.0649 38.816C60.6216 38.7227 60.2903 38.5687 60.0709 38.354C59.8563 38.1393 59.7489 37.85 59.7489 37.486C59.7489 37.192 59.8259 36.933 59.9799 36.709C60.1386 36.485 60.3579 36.3123 60.6379 36.191C60.9179 36.065 61.2399 36.002 61.6039 36.002C61.9399 36.002 62.2503 36.0533 62.5349 36.156C62.8243 36.254 63.0693 36.3987 63.2699 36.59L63.0319 37.143C62.6353 36.793 62.1569 36.618 61.5969 36.618C61.2516 36.618 60.9763 36.695 60.7709 36.849C60.5703 37.003 60.4699 37.2083 60.4699 37.465C60.4699 37.661 60.5329 37.8173 60.6589 37.934C60.7849 38.0507 60.9949 38.1393 61.2889 38.2L62.0309 38.354C62.4976 38.452 62.8453 38.6037 63.0739 38.809C63.3026 39.0097 63.4169 39.2827 63.4169 39.628C63.4169 39.9173 63.3399 40.1693 63.1859 40.384C63.0319 40.5987 62.8149 40.7667 62.5349 40.888C62.2549 41.0047 61.9213 41.063 61.5339 41.063ZM65.3449 41V36.674H63.5949V36.065H67.8159V36.674H66.0659V41H65.3449ZM68.4202 41V36.065H69.1482V41H68.4202ZM72.4984 41.063C71.9991 41.063 71.5721 40.9603 71.2174 40.755C70.8627 40.5497 70.5897 40.258 70.3984 39.88C70.2117 39.4973 70.1184 39.047 70.1184 38.529C70.1184 38.011 70.2117 37.563 70.3984 37.185C70.5897 36.807 70.8627 36.5153 71.2174 36.31C71.5721 36.1047 71.9991 36.002 72.4984 36.002C72.8344 36.002 73.1471 36.0557 73.4364 36.163C73.7304 36.2657 73.9754 36.415 74.1714 36.611L73.9194 37.192C73.7047 37.0007 73.4831 36.863 73.2544 36.779C73.0304 36.6903 72.7854 36.646 72.5194 36.646C71.9874 36.646 71.5814 36.8093 71.3014 37.136C71.0214 37.4627 70.8814 37.927 70.8814 38.529C70.8814 39.131 71.0214 39.5977 71.3014 39.929C71.5814 40.2557 71.9874 40.419 72.5194 40.419C72.7854 40.419 73.0304 40.377 73.2544 40.293C73.4831 40.2043 73.7047 40.0643 73.9194 39.873L74.1714 40.454C73.9754 40.6453 73.7304 40.7947 73.4364 40.902C73.1471 41.0093 72.8344 41.063 72.4984 41.063ZM76.5662 41.063C76.1788 41.063 75.8242 41.014 75.5022 40.916C75.1802 40.8133 74.9072 40.671 74.6832 40.489L74.9142 39.915C75.1475 40.0923 75.3972 40.2253 75.6632 40.314C75.9292 40.4027 76.2302 40.447 76.5662 40.447C76.9628 40.447 77.2545 40.377 77.4412 40.237C77.6325 40.0923 77.7282 39.9057 77.7282 39.677C77.7282 39.4903 77.6605 39.3433 77.5252 39.236C77.3898 39.124 77.1635 39.0353 76.8462 38.97L76.0972 38.816C75.6538 38.7227 75.3225 38.5687 75.1032 38.354C74.8885 38.1393 74.7812 37.85 74.7812 37.486C74.7812 37.192 74.8582 36.933 75.0122 36.709C75.1708 36.485 75.3902 36.3123 75.6702 36.191C75.9502 36.065 76.2722 36.002 76.6362 36.002C76.9722 36.002 77.2825 36.0533 77.5672 36.156C77.8565 36.254 78.1015 36.3987 78.3022 36.59L78.0642 37.143C77.6675 36.793 77.1892 36.618 76.6292 36.618C76.2838 36.618 76.0085 36.695 75.8032 36.849C75.6025 37.003 75.5022 37.2083 75.5022 37.465C75.5022 37.661 75.5652 37.8173 75.6912 37.934C75.8172 38.0507 76.0272 38.1393 76.3212 38.2L77.0632 38.354C77.5298 38.452 77.8775 38.6037 78.1062 38.809C78.3348 39.0097 78.4492 39.2827 78.4492 39.628C78.4492 39.9173 78.3722 40.1693 78.2182 40.384C78.0642 40.5987 77.8472 40.7667 77.5672 40.888C77.2872 41.0047 76.9535 41.063 76.5662 41.063Z" fill="#FEFEFE"/>
</g>
<defs>
<clipPath id="clip0_100_23">
<rect width="101" height="45" fill="white"/>
</clipPath>
</defs>
</svg>
